<svg xmlns="http://www.w3.org/2000/svg" width="9.55" height="12.742" viewBox="0 0 9.55 12.742">
  <path id="icon" d="M4.127.672v9.777L1.107,7.321a.633.633,0,0,0-.917,0,.689.689,0,0,0,0,.95l4.127,4.275a.647.647,0,0,0,.191.137h0l.01,0,.006,0,.007,0,.01,0,0,0,.013,0h0a.627.627,0,0,0,.183.037H4.87l.009,0h.007l.009,0H4.9l.009,0,.007,0,.008,0,.008,0,.007,0,.01,0h.005l.011,0h0l.014,0h0a.643.643,0,0,0,.251-.161L9.36,8.271a.689.689,0,0,0,0-.95.633.633,0,0,0-.917,0l-3.02,3.128V.672a.649.649,0,1,0-1.3,0Z"/>
</svg>
