<svg xmlns="http://www.w3.org/2000/svg" width="18" height="18" viewBox="0 0 18 18">
  <path id="Form_44" data-name="Form 44" d="M1321.615,481.6a7.666,7.666,0,0,1,0-11.569.965.965,0,0,1,1.273,0,.765.765,0,0,1,0,1.157,6.132,6.132,0,0,0,0,9.255,7.718,7.718,0,0,0,10.182,0,6.132,6.132,0,0,0,0-9.255.767.767,0,0,1,0-1.157.965.965,0,0,1,1.273,0,7.665,7.665,0,0,1,0,11.569,9.651,9.651,0,0,1-12.728,0Zm5.467-6.686V466.9a.9.9,0,0,1,1.8,0v8.02a.9.9,0,0,1-1.8,0Z" transform="translate(-1318.979 -466)"/>
</svg>
