<svg xmlns="http://www.w3.org/2000/svg" width="18" height="18" viewBox="0 0 18 18">
  <g id="Group_51" data-name="Group 51" transform="translate(-51 -327)">
    <path id="Op_component_1" data-name="Op component 1" d="M985,393a3,3,0,1,1,3-3A3,3,0,0,1,985,393Zm0-1.5a1.5,1.5,0,1,0-1.5-1.5A1.5,1.5,0,0,0,985,391.5Z" transform="translate(-925 -54)"/>
    <path id="Op_component_2" data-name="Op component 2" d="M989.682,388.75h.068a.75.75,0,0,0,0-1.5h-.131a1.987,1.987,0,0,1-1.819-1.2.751.751,0,0,1-.054-.2,1.991,1.991,0,0,1,.461-2.053l.045-.045a.751.751,0,1,0-1.062-1.062l-.051.051a2,2,0,0,1-3.389-1.421v-.067a.75.75,0,0,0-1.5,0v.13a1.987,1.987,0,0,1-1.2,1.819.749.749,0,0,1-.2.054,1.991,1.991,0,0,1-2.053-.461l-.045-.045a.751.751,0,1,0-1.062,1.062l.051.051a1.969,1.969,0,0,1,.415,2.148,1.993,1.993,0,0,1-1.836,1.3h-.067a.75.75,0,1,0,0,1.5h.13a2,2,0,0,1,1.412,3.4l-.045.045a.751.751,0,1,0,1.062,1.062l.051-.051a1.969,1.969,0,0,1,2.148-.415,1.993,1.993,0,0,1,1.3,1.836v.068a.75.75,0,1,0,1.5,0v-.131a2,2,0,0,1,3.4-1.412l.045.045a.751.751,0,1,0,1.061-1.062l-.051-.051a2,2,0,0,1,1.421-3.389Zm-1.819,1.2,0,.007,0,0Zm1.36-4.411a.486.486,0,0,0,.4.214h.128a2.25,2.25,0,1,1,0,4.5h-.065a.5.5,0,0,0-.358.835l.045.045a2.251,2.251,0,1,1-3.183,3.183l-.039-.039a.5.5,0,0,0-.84.349v.128a2.25,2.25,0,0,1-4.5,0,.524.524,0,0,0-.363-.514.485.485,0,0,0-.532.092l-.045.045a2.251,2.251,0,1,1-3.183-3.183l.039-.039a.5.5,0,0,0-.349-.841h-.127a2.25,2.25,0,1,1,0-4.5.524.524,0,0,0,.514-.363.485.485,0,0,0-.092-.532l-.045-.045a2.251,2.251,0,1,1,3.183-3.183l.039.039a.488.488,0,0,0,.538.1.756.756,0,0,1,.149-.048.486.486,0,0,0,.214-.4v-.127a2.25,2.25,0,1,1,4.5,0v.064a.491.491,0,0,0,.3.449.485.485,0,0,0,.532-.092l.045-.045a2.251,2.251,0,1,1,3.183,3.183l-.039.039a.487.487,0,0,0-.1.538A.751.751,0,0,1,989.224,385.536Z" transform="translate(-923 -52)"/>
  </g>
</svg>
