<svg xmlns="http://www.w3.org/2000/svg" width="19" height="19.405" viewBox="0 0 19 19.405">
  <path id="features-alt" d="M17.843,4.491,15.026,1.673a5.62,5.62,0,0,0-4-1.658H7.373A4.043,4.043,0,0,0,3.462,3.032a.808.808,0,1,0,1.564.409,2.427,2.427,0,0,1,2.347-1.81h3.651c.133,0,.261.026.392.038v4A2.429,2.429,0,0,0,13.841,8.1h4c.013.131.04.26.04.392v6.885A2.429,2.429,0,0,1,15.458,17.8H7.373a2.4,2.4,0,0,1-1.516-.531.808.808,0,1,0-1.011,1.261,4.054,4.054,0,0,0,2.527.887h8.085A4.047,4.047,0,0,0,19.5,15.377V8.493a5.622,5.622,0,0,0-1.658-4Zm-4,1.992a.809.809,0,0,1-.809-.809V2.184a4.029,4.029,0,0,1,.849.631L16.7,5.634a4,4,0,0,1,.627.849H13.84ZM8.181,12.94H14.65a.809.809,0,1,1,0,1.617H8.181a.809.809,0,0,1,0-1.617Zm-2.426,2.3V11.4a3.234,3.234,0,1,0-4.043,0v3.841a.527.527,0,0,0,.945.319l1.076-1.409L4.81,15.561A.527.527,0,0,0,5.756,15.242ZM3.734,7.28A1.617,1.617,0,1,1,2.117,8.9,1.619,1.619,0,0,1,3.734,7.28ZM8.99,11.323a.809.809,0,0,1,0-1.617h5.66a.809.809,0,1,1,0,1.617Z" transform="translate(-0.5 -0.015)"/>
</svg>
