<svg id="picture" xmlns="http://www.w3.org/2000/svg" width="18" height="18" viewBox="0 0 18 18">
  <path id="Path_1885" data-name="Path 1885" d="M14.25,0H3.75A3.754,3.754,0,0,0,0,3.75v10.5A3.755,3.755,0,0,0,3.75,18h10.5A3.755,3.755,0,0,0,18,14.25V3.75A3.755,3.755,0,0,0,14.25,0ZM3.75,1.5h10.5A2.25,2.25,0,0,1,16.5,3.75v10.5a2.213,2.213,0,0,1-.225.964L9.4,8.341a3.75,3.75,0,0,0-5.3,0l-2.6,2.6V3.75A2.25,2.25,0,0,1,3.75,1.5Zm0,15A2.25,2.25,0,0,1,1.5,14.25V13.06L5.158,9.4a2.25,2.25,0,0,1,3.183,0l6.872,6.873a2.213,2.213,0,0,1-.964.225Z"/>
  <path id="Path_1886" data-name="Path 1886" d="M15.125,8.75A2.625,2.625,0,1,0,12.5,6.125,2.625,2.625,0,0,0,15.125,8.75Zm0-3.75A1.125,1.125,0,1,1,14,6.125,1.125,1.125,0,0,1,15.125,5Z" transform="translate(-3.125 -0.875)"/>
</svg>
