<svg xmlns="http://www.w3.org/2000/svg" width="20" height="18.333" viewBox="0 0 20 18.333">
  <path id="book-alt" d="M18.5,1.969a4.16,4.16,0,0,0-3.417-.9L11.9,1.647A3.333,3.333,0,0,0,10,2.721,3.333,3.333,0,0,0,8.1,1.647l-3.18-.578A4.167,4.167,0,0,0,0,5.167v8.994a4.167,4.167,0,0,0,3.421,4.1l5.239.953a7.5,7.5,0,0,0,2.682,0l5.242-.952A4.167,4.167,0,0,0,20,14.161V5.167a4.153,4.153,0,0,0-1.5-3.2ZM9.167,17.607c-.07-.01-.14-.022-.21-.034l-5.238-.952a2.5,2.5,0,0,1-2.052-2.46V5.167a2.5,2.5,0,0,1,2.5-2.5,2.567,2.567,0,0,1,.45.041L7.8,3.291A1.667,1.667,0,0,1,9.167,4.927Zm9.167-3.446a2.5,2.5,0,0,1-2.053,2.46l-5.237.952c-.07.013-.14.024-.21.034V4.927A1.667,1.667,0,0,1,12.2,3.287L15.386,2.7a2.5,2.5,0,0,1,2.948,2.463Z" transform="translate(0 -1)"/>
</svg>
